<svg xmlns="http://www.w3.org/2000/svg" viewBox="0 0 280 280"><defs><style>.cls-1{fill:#eb3223;}</style></defs><g id="图层_2" data-name="图层 2"><g id="图层_1-2" data-name="图层 1"><path class="cls-1" d="M149.51,89.68a43.46,43.46,0,0,0-16.59-6.25,46.11,46.11,0,0,0-17.06.58,44.53,44.53,0,0,0-30.1,24.16c-3.82,7.91-5.18,17.5-3.92,27.7A43.05,43.05,0,0,0,90.76,157c9.87,12.61,26.45,19.24,42.07,16.65a45.41,45.41,0,0,0,30.22-19.24c6.39-9.6,8.53-21.68,6.86-33.42A44.16,44.16,0,0,0,149.51,89.68Z"/><path class="cls-1" d="M160.78,1.57A140,140,0,1,0,278.43,160.78,140,140,0,0,0,160.78,1.57Zm43.27,184.59a15,15,0,0,1-9.89,4.24,15.18,15.18,0,0,1-9.6-3.28,13.67,13.67,0,0,1-3.72-4.53,2.35,2.35,0,0,0-3.9-.9c-1.05,1-2.1,1.84-3.22,2.79A66.85,66.85,0,0,1,162,192.66a75.78,75.78,0,0,1-23.64,8,72.3,72.3,0,0,1-17.48.64,73.3,73.3,0,0,1-31-9.78,74.76,74.76,0,0,1-23.62-22.17,73,73,0,0,1,25.59-105,74.14,74.14,0,0,1,23.81-8c21.07-3.37,41.44,3.15,56.58,15a68.81,68.81,0,0,1,15.79,17.36c1.71,2.41,5.65,7.85,10.07,22.71a261.19,261.19,0,0,1,7.72,37.06c.84,6,1.35,10,2,18,.11,1.41.53,8.49.53,9.16A14.88,14.88,0,0,1,204.05,186.16Zm43.57-5.28A14,14,0,0,1,238,184.8h0a14,14,0,0,1-14-14l-.15-3.13a242.06,242.06,0,0,0-2.13-27c-1.29-10.58-2.87-20.72-4.82-30.3a349.74,349.74,0,0,0-20.66-66.92c-1.52-3.54-2.93-7-4.27-9.72a17,17,0,0,1-1.88-5.06,5.89,5.89,0,0,1,5.85-6.42,23.76,23.76,0,0,1,5.77,1.15,32.05,32.05,0,0,1,7.61,3.38A34.18,34.18,0,0,1,219.59,36a46,46,0,0,1,4.27,7.26c1.16,2.62,2.29,5.21,3.4,7.86,2.63,6.27,5,12.71,7.38,19.11,1.5,4.09,2.85,8.2,4.2,12.37.72,2.2,1.52,4.56,2.14,6.78.85,3,1.88,6.31,2.77,9.58.44,1.62,1,3.59,1.34,5.39.75,3.61,1.25,7.2,1.85,10.69,1.34,7.85,2.25,15.83,2.95,22.74,1.22,12,1.69,21.7,1.89,29.09,0,.81.08,3.14.08,4.05A14.06,14.06,0,0,1,247.62,180.88Z"/></g></g></svg>