<svg xmlns="http://www.w3.org/2000/svg" viewBox="0 0 982 281.09"><defs><style>.cls-1{fill:#fff;}</style></defs><g id="图层_2" data-name="图层 2"><g id="图层_1-2" data-name="图层 1"><path class="cls-1" d="M150.09,90a43.26,43.26,0,0,0-16.66-6.27,46,46,0,0,0-17.12.58,44.67,44.67,0,0,0-30.22,24.25c-3.83,8-5.2,17.57-3.93,27.81a43.16,43.16,0,0,0,9,21.24c9.9,12.66,26.54,19.32,42.22,16.71a45.58,45.58,0,0,0,30.34-19.3c6.42-9.65,8.57-21.78,6.89-33.56A44.33,44.33,0,0,0,150.09,90Z"/><path class="cls-1" d="M161.4,1.58A140.52,140.52,0,1,0,279.51,161.4,140.52,140.52,0,0,0,161.4,1.58Zm43.44,185.3a15,15,0,0,1-9.93,4.26,15.22,15.22,0,0,1-9.63-3.29,13.68,13.68,0,0,1-3.74-4.55,2.36,2.36,0,0,0-3.91-.91c-1,1-2.11,1.85-3.23,2.81a67.4,67.4,0,0,1-11.73,8.21,76.44,76.44,0,0,1-23.73,8.07,72.39,72.39,0,0,1-17.55.64,73.54,73.54,0,0,1-31.13-9.82,75,75,0,0,1-23.71-22.25A73.27,73.27,0,0,1,92.24,64.67a74.61,74.61,0,0,1,23.9-8c21.15-3.38,41.6,3.16,56.8,15a68.82,68.82,0,0,1,15.85,17.43c1.72,2.41,5.68,7.88,10.11,22.79a262.25,262.25,0,0,1,7.75,37.2c.84,6,1.36,10,2,18.06.11,1.42.53,8.53.53,9.2A14.91,14.91,0,0,1,204.84,186.88Zm43.75-5.3a14.07,14.07,0,0,1-9.64,3.94h0a14.09,14.09,0,0,1-14.08-14.08l-.15-3.15a244.22,244.22,0,0,0-2.14-27.15c-1.3-10.61-2.88-20.79-4.84-30.41A350.71,350.71,0,0,0,197,43.55c-1.53-3.55-2.95-7-4.29-9.76a16.87,16.87,0,0,1-1.89-5.08,5.65,5.65,0,0,1,1.29-4.25,5.75,5.75,0,0,1,4.59-2.19,23.38,23.38,0,0,1,5.78,1.15,32.14,32.14,0,0,1,7.64,3.4,34.33,34.33,0,0,1,10.32,9.27,45.83,45.83,0,0,1,4.28,7.29c1.17,2.63,2.29,5.23,3.41,7.88,2.64,6.3,5.05,12.76,7.41,19.19,1.51,4.11,2.86,8.24,4.22,12.42.72,2.21,1.52,4.58,2.15,6.8.86,3.06,1.88,6.35,2.78,9.63.44,1.63,1,3.6,1.34,5.4.75,3.63,1.26,7.23,1.86,10.74,1.34,7.88,2.26,15.89,3,22.82,1.22,12,1.69,21.79,1.9,29.2,0,.82.08,3.16.08,4.07A14.13,14.13,0,0,1,248.59,181.58Z"/><path class="cls-1" d="M381.41,129.73H337.36V247.41h23.29V208.87h20.76c11.77,0,21.6-3.74,29.24-11.15s11.35-17,11.35-28.5-3.82-20.91-11.37-28.35S393.18,129.73,381.41,129.73Zm12.43,51.76a16.68,16.68,0,0,1-12.43,4.87H360.65V152.24h20.76a16.73,16.73,0,0,1,12.46,4.91,16,16,0,0,1,4.84,12.07A16.19,16.19,0,0,1,393.84,181.49Z"/><path class="cls-1" d="M728.6,158a44.69,44.69,0,1,0,22.3,83.4v6h22.39V202h0A44.74,44.74,0,0,0,728.6,158Zm0,67a22.3,22.3,0,1,1,22.3-22.3A22.32,22.32,0,0,1,728.6,225Z"/><path class="cls-1" d="M676.62,224.9h-38V129.73H615.33V247.41h79.21A55.85,55.85,0,0,1,676.62,224.9Z"/><path class="cls-1" d="M470.35,158a44.69,44.69,0,1,0,22.29,83.4v6H515V202h0A44.72,44.72,0,0,0,470.35,158Zm0,67a22.3,22.3,0,1,1,22.29-22.3A22.32,22.32,0,0,1,470.35,225Z"/><path class="cls-1" d="M841.47,158.44H815V135.12l-23.3,6.24v17.08H766.36l.34.57A55.77,55.77,0,0,1,781.36,181h10.36v66.46H815V181h10.3a51.61,51.61,0,0,1,12.38-19.12Q839.53,160,841.47,158.44Z"/><polygon class="cls-1" points="560.5 213.65 539.55 158.03 515.04 158.03 547.4 245.83 535.7 279.4 560.46 279.4 605.83 158.03 581.32 158.03 560.5 213.65"/><path class="cls-1" d="M342.62,106.8a6.13,6.13,0,0,0,7.92-3.52l6.06-15.74h33.07l6.06,15.74a6.14,6.14,0,0,0,5.72,3.93,6,6,0,0,0,2.2-.41,6.14,6.14,0,0,0,3.52-7.93l-24.1-62.63a10.64,10.64,0,0,0-19.87,0L339.1,98.87A6.14,6.14,0,0,0,342.62,106.8Zm30.52-62.24L385,75.27H361.32Z"/><path class="cls-1" d="M556.51,107.2h0a6.16,6.16,0,0,0,6.14-6.16l-.18-66.42a6.15,6.15,0,0,0-6.15-6.13h0a6.15,6.15,0,0,0-6.13,6.16l.18,66.42A6.14,6.14,0,0,0,556.51,107.2Z"/><path class="cls-1" d="M430.56,105.1,445.77,88l17.64,17.43a6.14,6.14,0,0,0,8.69-8.69l-18-17.84a.52.52,0,0,0-.11-.1L472.38,58a6.15,6.15,0,1,0-9.25-8.1l-31,34.78v-50a6.15,6.15,0,1,0-12.3,0v66.41a6.14,6.14,0,0,0,4,5.76,6.05,6.05,0,0,0,2.16.39A6.15,6.15,0,0,0,430.56,105.1Z"/><path class="cls-1" d="M512.13,107.2a26,26,0,0,0,25.94-25.93V54.32a6.15,6.15,0,0,0-12.3,0V81.27a13.64,13.64,0,0,1-27.27,0V54.32a6.15,6.15,0,1,0-12.3,0V81.27A26,26,0,0,0,512.13,107.2Z"/><path class="cls-1" d="M604.28,107.2a29.41,29.41,0,0,0,17.25-5.57,6.15,6.15,0,0,0,12.27-.58V78.38c0-.08,0-.15,0-.23s0-.31,0-.47a29.52,29.52,0,1,0-29.52,29.52Zm0-46.73a17.22,17.22,0,1,1-17.22,17.21A17.24,17.24,0,0,1,604.28,60.47Z"/><path class="cls-1" d="M650.08,106.81a6.05,6.05,0,0,0,2.16.39,6.15,6.15,0,0,0,4.63-2.1L672.09,88l17.63,17.43a6.14,6.14,0,1,0,8.69-8.69l-18-17.84a.52.52,0,0,0-.11-.1L698.69,58a6.15,6.15,0,1,0-9.25-8.1l-31,34.78v-50a6.15,6.15,0,1,0-12.3,0v66.41A6.14,6.14,0,0,0,650.08,106.81Z"/><path class="cls-1" d="M738.45,107.2a26,26,0,0,0,25.93-25.93V54.32a6.15,6.15,0,0,0-12.3,0V81.27a13.64,13.64,0,0,1-27.27,0V54.32a6.15,6.15,0,1,0-12.3,0V81.27A26,26,0,0,0,738.45,107.2Z"/><path class="cls-1" d="M878.52,158.05c-12.92,0-23.82,4.28-32.38,12.73s-12.77,19.11-12.77,31.95,4.3,23.6,12.77,32,19.45,12.73,32.38,12.73a45.63,45.63,0,0,0,26.23-7.75,43,43,0,0,0,16-20.66l.41-1.11H894.76l0,0c-.33.36-.68.7-1,1s-.64.6-1,.87l-.22.18c-.49.4-1,.78-1.51,1.13l-.32.21c-.4.25-.8.51-1.21.73a22.21,22.21,0,0,1-31.34-10.46h64.69l.18-1.25a53.47,53.47,0,0,0,.67-7.63c0-12.85-4.36-23.61-12.91-31.93S891.46,158.05,878.52,158.05Zm0,22.44a22.23,22.23,0,0,1,20.39,13.37H858.14A22.23,22.23,0,0,1,878.52,180.49Z"/><path class="cls-1" d="M977.54,158.05a43.67,43.67,0,0,0-20.76,5.23v-5.23H933.49v89.36h23.29V201.68a20.78,20.78,0,0,1,20.4-20.54H982V158.27A44.39,44.39,0,0,0,977.54,158.05Z"/></g></g></svg>