<svg id="Layer_1" data-name="Layer 1" xmlns="http://www.w3.org/2000/svg" viewBox="0 0 156 130"><defs><style>.cls-1{fill:#00aed6;}.cls-2{fill:#fff;fill-rule:evenodd;}</style></defs><title>ALL PRODUCT LOGO V5 EXPANDED</title><circle class="cls-1" cx="78" cy="65" r="24"/><path class="cls-2" d="M91.97905,64.25252a5.57883,5.57883,0,0,0-5.82007-5.25H70.99907a1,1,0,0,1,0-2H86.35893c-.09985-1.97-1.59985-4.11-3.5-4.41a38.91689,38.91689,0,0,0-13.52978,0c-2.5.4-4.40015,2.87-4.8,5.34a47.669,47.669,0,0,0,0,14.21,6.74182,6.74182,0,0,0,5.47,5.34,67.86422,67.86422,0,0,0,16.73,0c2.5-.29,4.14014-2.57,4.64014-5.04A38.14508,38.14508,0,0,0,91.97905,64.25252Zm-4.98,3.36v.89a1,1,0,0,1-2,0v-.89a1.46714,1.46714,0,0,1-.5-1.11,1.5,1.5,0,0,1,3,0A1.46714,1.46714,0,0,1,86.99907,67.6125Z"/></svg>