<svg id="Layer_1" data-name="Layer 1" xmlns="http://www.w3.org/2000/svg" viewBox="0 0 220 130"><defs><style>.cls-1{fill:#00aed6;}.cls-2{fill:#fff;fill-rule:evenodd;}</style></defs><title>ALL PRODUCT LOGO V5 EXPANDED</title><circle class="cls-1" cx="70" cy="74" r="12"/><path class="cls-2" d="M76.98953,73.62626a2.78943,2.78943,0,0,0-2.91-2.625h-7.58a.5.5,0,0,1,0-1h7.67994a2.38628,2.38628,0,0,0-1.75-2.205,19.45826,19.45826,0,0,0-6.7649,0,3.19274,3.19274,0,0,0-2.4,2.67,23.83452,23.83452,0,0,0,0,7.105,3.37092,3.37092,0,0,0,2.735,2.67,33.93219,33.93219,0,0,0,8.365,0,2.92816,2.92816,0,0,0,2.32006-2.52A19.07315,19.07315,0,0,0,76.98953,73.62626Zm-2.49,1.68v.445a.5.5,0,0,1-1,0v-.445a.7336.7336,0,0,1-.25-.555.75.75,0,0,1,1.5,0A.73357.73357,0,0,1,74.49953,75.30625Z"/><circle class="cls-1" cx="70" cy="74" r="12"/><path class="cls-2" d="M76.98953,73.62626a2.78943,2.78943,0,0,0-2.91-2.625h-7.58a.5.5,0,0,1,0-1h7.67994a2.38628,2.38628,0,0,0-1.75-2.205,19.45826,19.45826,0,0,0-6.7649,0,3.19274,3.19274,0,0,0-2.4,2.67,23.83452,23.83452,0,0,0,0,7.105,3.37092,3.37092,0,0,0,2.735,2.67,33.93219,33.93219,0,0,0,8.365,0,2.92816,2.92816,0,0,0,2.32006-2.52A19.07315,19.07315,0,0,0,76.98953,73.62626Zm-2.49,1.68v.445a.5.5,0,0,1-1,0v-.445a.7336.7336,0,0,1-.25-.555.75.75,0,0,1,1.5,0A.73357.73357,0,0,1,74.49953,75.30625Z"/><path d="M91.48633,79.97363A5.159,5.159,0,0,0,95.9707,82.165c2.08985,0,3.627-1.335,3.627-3.14942v-.957h-.05078a5.69341,5.69341,0,0,1-4.30665,1.61231,6.97966,6.97966,0,1,1-.12695-13.95606,5.99693,5.99693,0,0,1,4.4336,1.56153h.05078V65.9668h3.57812v12.999c0,3.77832-2.99805,6.39844-7.20508,6.39844a8.60681,8.60681,0,0,1-7.15429-3.17383Zm7.96094-8.08691c0-1.51172-1.71289-2.89746-3.627-2.89746-2.41992,0-4.03125,1.46191-4.03125,3.65332a3.52889,3.52889,0,0,0,3.87891,3.7539c2.0918,0,3.7793-1.31054,3.7793-2.94824Z"/><path d="M112.54688,65.58887c4.35937,0,7.5332,3.09863,7.5332,7.05371s-3.17383,7.05371-7.5332,7.05371a7.06885,7.06885,0,1,1,0-14.10742Zm0,3.27441a3.7789,3.7789,0,1,0,3.80468,3.7793A3.61713,3.61713,0,0,0,112.54688,68.86328Z"/><path d="M122.0957,65.9668h3.57813v1.18359h.05078a5.942,5.942,0,0,1,4.30664-1.56152,7.05511,7.05511,0,0,1,.02539,14.10742,6.46161,6.46161,0,0,1-4.18164-1.41113h-.05078v6.70117H122.0957Zm7.35742,2.92187c-1.96679,0-3.6289,1.38574-3.6289,2.89746v1.6875c0,1.61231,1.61328,2.94727,3.65234,2.94727a3.76613,3.76613,0,0,0-.02344-7.53223Z"/><path d="M143.98828,71.35742c2.44336-.32715,3.17383-.67969,3.17383-1.36035,0-.88184-.93164-1.41016-2.36719-1.41016a3.15006,3.15006,0,0,0-3.32617,2.39258l-3.52734-.73047c.5039-2.7207,3.30078-4.66015,6.752-4.66015,3.9043,0,6.32422,1.99023,6.32422,5.23925v8.49024H147.666V77.85742h-.05079a5.51013,5.51013,0,0,1-4.50976,1.83887c-2.94727,0-4.98633-1.61231-4.98633-3.98047C138.11914,73.22168,139.78125,71.9375,143.98828,71.35742Zm3.47656,1.41113h-.05078c-.32812.47852-1.0332.75586-2.8457,1.083-2.19336.40332-2.97266.83106-2.97266,1.61231,0,.80664.6543,1.15918,2.06446,1.15918,2.14257,0,3.80468-.98243,3.80468-2.26758Z"/><path d="M157.76758,78.58789,151.5957,65.9668h4.10742l4.05469,8.71582h.05078l4.00586-8.71582h4.13086l-9.24414,19.01953h-4.10742Z"/></svg>