<?xml version="1.0" encoding="utf-8"?>
<!-- Generator: Adobe Illustrator 23.0.4, SVG Export Plug-In . SVG Version: 6.00 Build 0)  -->
<svg version="1.1" id="Layer_1" xmlns="http://www.w3.org/2000/svg" xmlns:xlink="http://www.w3.org/1999/xlink" x="0px" y="0px"
	 viewBox="0 0 220 130" style="enable-background:new 0 0 220 130;" xml:space="preserve">
<style type="text/css">
	.st0{fill:#00AED6;}
	.st1{fill-rule:evenodd;clip-rule:evenodd;fill:#FFFFFF;}
</style>
<title>ALL PRODUCT LOGO V5 EXPANDED</title>
<circle class="st0" cx="104" cy="47" r="24"/>
<path class="st1" d="M118,46.3c-0.2-3-2.8-5.4-5.8-5.2H97c-0.6,0-1-0.4-1-1s0.4-1,1-1h15.4c-0.1-2-1.6-4.1-3.5-4.4
	c-4.5-0.8-9.1-0.8-13.5,0c-2.5,0.4-4.4,2.9-4.8,5.3c-0.7,4.7-0.7,9.5,0,14.2c0.5,2.7,2.7,4.9,5.5,5.3c5.6,0.7,11.2,0.7,16.7,0
	c2.5-0.3,4.1-2.6,4.6-5C117.9,51.7,118.1,49,118,46.3z M113,49.6v0.9c0,0.6-0.4,1-1,1s-1-0.4-1-1v-0.9c-0.3-0.3-0.5-0.7-0.5-1.1
	c0-0.8,0.7-1.5,1.5-1.5s1.5,0.7,1.5,1.5C113.5,48.9,113.3,49.3,113,49.6L113,49.6z"/>
<path d="M67.8,95c1,1.5,2.7,2.3,4.5,2.2c2.1,0,3.6-1.3,3.6-3.1v-1h0c-1.1,1.1-2.7,1.7-4.3,1.6c-3.9,0.1-7.1-2.9-7.2-6.8
	s2.9-7.1,6.8-7.2c0.1,0,0.2,0,0.3,0c1.6-0.1,3.2,0.5,4.4,1.6h0V81h3.6v13c0,3.8-3,6.4-7.2,6.4c-2.8,0.2-5.4-1-7.2-3.2L67.8,95z
	 M75.8,86.9c0-1.5-1.7-2.9-3.6-2.9c-2.4,0-4,1.5-4,3.7c-0.1,1.9,1.3,3.6,3.3,3.8c0.2,0,0.4,0,0.6,0c2.1,0,3.8-1.3,3.8-2.9V86.9z"/>
<path d="M88.9,80.6c4.4,0,7.5,3.1,7.5,7.1s-3.2,7.1-7.5,7.1C85,95,81.6,92,81.4,88.1s2.7-7.3,6.6-7.5C88.3,80.6,88.6,80.6,88.9,80.6
	z M88.9,83.9c-2.1,0-3.8,1.7-3.8,3.8c0,2.1,1.7,3.8,3.8,3.8c2.1,0,3.8-1.7,3.8-3.8c0.1-2-1.5-3.7-3.4-3.8
	C89.1,83.9,89,83.9,88.9,83.9z"/>
<path d="M98.5,81h3.6v1.2h0.1c1.2-1.1,2.7-1.6,4.3-1.6c3.9,0.1,7,3.3,6.9,7.2c-0.1,3.8-3.1,6.8-6.9,6.9c-1.5,0-3-0.5-4.2-1.4h-0.1
	v6.7h-3.7V81z M105.8,83.9c-2,0-3.6,1.4-3.6,2.9v1.7c0,1.6,1.6,2.9,3.7,2.9c2.1,0,3.8-1.7,3.7-3.8C109.6,85.6,107.9,83.9,105.8,83.9
	L105.8,83.9z"/>
<path d="M120.4,86.4c2.4-0.3,3.2-0.7,3.2-1.4c0-0.9-0.9-1.4-2.4-1.4c-1.5-0.1-3,0.9-3.3,2.4l-3.5-0.7c0.5-2.7,3.3-4.7,6.8-4.7
	c3.9,0,6.3,2,6.3,5.2v8.5H124v-1.5H124c-1.1,1.3-2.8,2-4.5,1.8c-2.9,0-5-1.6-5-4C114.5,88.2,116.1,87,120.4,86.4z M123.8,87.8
	L123.8,87.8c-0.4,0.5-1.1,0.8-2.9,1.1c-2.2,0.4-3,0.8-3,1.6c0,0.8,0.7,1.2,2.1,1.2c2.1,0,3.8-1,3.8-2.3V87.8z"/>
<path d="M134.1,93.6L128,81h4.1l4.1,8.7h0.1l4-8.7h4.1l-9.2,19H131L134.1,93.6z"/>
</svg>
