<?xml version="1.0" encoding="UTF-8" standalone="no"?>
<svg width="802px" height="273px" viewBox="0 0 802 273" version="1.1" xmlns="http://www.w3.org/2000/svg" xmlns:xlink="http://www.w3.org/1999/xlink" xmlns:sketch="http://www.bohemiancoding.com/sketch/ns">
    <!-- Generator: Sketch 3.5 (25232) - http://www.bohemiancoding.com/sketch -->
    <title>Graphic1</title>
    <desc>Created with Sketch.</desc>
    <defs></defs>
    <g id="Page-1" stroke="none" stroke-width="1" fill="none" fill-rule="evenodd" sketch:type="MSPage">
        <g id="Graphic1" sketch:type="MSLayerGroup">
            <g id="g24" sketch:type="MSShapeGroup">
                <path d="M543.3235,45.7182 L543.3235,64.9456 C543.3235,68.5649333 545.133133,70.3746 548.7524,70.3746 L570.3549,70.3746 C573.974167,70.3746 575.7838,68.5649333 575.7838,64.9456 L575.7838,45.7182 C575.7838,42.0989333 573.974167,40.2893 570.3549,40.2893 L548.7524,40.2893 C545.133133,40.2893 543.3235,42.0989333 543.3235,45.7182 L543.3235,45.7182 Z" id="path2" fill="#F27D31"></path>
                <path d="M575.7838,163.3124 L575.7838,172.9261 L575.7838,182.5398 C575.7838,185.5258 573.3409,187.9687 570.3549,187.9687 L548.7524,187.9687 C545.7664,187.9687 543.3235,185.5258 543.3235,182.5398 L543.3235,172.9261 L543.3235,163.3124 L543.3235,107.2986 L543.3235,97.6849 L543.3235,88.0712 C543.3235,85.0852 545.7664,82.6423 548.7524,82.6423 L570.3549,82.6423 C573.3409,82.6423 575.7838,85.0852 575.7838,88.0712 L575.7838,97.6849 L575.7838,107.2986 L575.7838,163.3124 Z" id="path4" fill="#47BBE4"></path>
                <path d="M746.4598,80.3953 C776.7254,80.3953 801.2697,104.9397 801.2697,135.2054 C801.2697,165.4712 776.7254,190.0156 746.4598,190.0156 C716.1938,190.0156 691.6494,165.4712 691.6494,135.2054 C691.6494,104.9397 716.1938,80.3953 746.4598,80.3953 L746.4598,80.3953 Z M746.4596,108.833 C759.415,108.833 769.9214,120.6427 769.9214,135.2054 C769.9214,149.7682 759.415,161.5779 746.4596,161.5779 C733.5041,161.5779 722.9978,149.7682 722.9978,135.2054 C722.9978,120.6427 733.5041,108.833 746.4596,108.833 L746.4596,108.833 Z" id="path6" fill="#47BBE4"></path>
                <path d="M521.8459,155.9911 L521.8459,168.4595 L521.8459,180.9277 C521.8459,184.8001 519.4027,187.9687 516.417,187.9687 L497.5159,187.9687 C493.3668,187.9687 490.8304,178.37 490.1189,175.4177 L482.7213,182.6852 C476.3499,188.1895 469.1487,190.6778 461.1187,190.15 C444.794,189.2074 431.8626,182.1574 422.3246,168.9998 C412.7486,154.8243 409.808,139.1408 413.5026,121.9492 C416.6979,108.191 423.1538,97.6699 432.8704,90.3871 C442.2159,82.9411 453.5539,79.5565 466.8855,80.2334 C476.3099,81.801 483.8098,86.4753 489.3855,94.255 L489.3855,83.3453 L489.3855,70.8769 L489.3855,58.4087 C489.3855,54.536 491.8284,51.3677 494.8145,51.3677 L516.417,51.3677 C519.403,51.3677 521.8459,54.536 521.8459,58.4087 L521.8459,70.8769 L521.8459,83.3453 L521.8459,155.9911 Z M467.0925,108.7993 C480.6449,108.7993 491.6357,120.5138 491.6357,134.9586 C491.6357,149.4036 480.6449,161.1181 467.0925,161.1181 C453.54,161.1181 442.5493,149.4036 442.5493,134.9586 C442.5493,120.5138 453.54,108.7993 467.0925,108.7993 L467.0925,108.7993 Z" id="path8" fill="#47BBE4"></path>
                <path d="M389.0969,172.0794 C379.102,182.6778 364.9316,189.2956 349.2177,189.2956 C318.9516,189.2956 294.4073,164.7512 294.4073,134.4854 C294.4073,106.8409 314.8848,83.9706 341.4947,80.2162 C359.0619,77.7401 376.4822,86.8793 387.7635,99.716 C395.4352,108.4498 399.1231,120.3964 398.8274,135.5555 C398.6885,142.6934 395.2217,145.4116 388.3004,145.3526 C367.3325,145.1672 346.3641,144.9816 325.3959,144.7959 C328.3439,153.3401 333.012,158.7458 339.4002,161.0118 C350.3059,164.4151 360.986,162.2151 371.4408,154.4119 C374.9656,151.9361 377.0894,153.1729 379.6235,155.9386 C382.7436,159.3408 385.864,162.7429 388.9841,166.145 C390.5208,168.0888 390.8334,170.236 389.0969,172.0794 L389.0969,172.0794 Z M327.4317,121.1575 L369.0537,121.1575 C358.4218,100.8745 336.5176,101.44 327.4317,121.1575 L327.4317,121.1575 Z" id="path10" fill="#47BBE4"></path>
                <path d="M0.6198,177.3694 L162.5285,0.3531 L232.053,0.3531 C240.0005,0.3531 243.5676,8.0464 239.5512,14.8413 L234.1223,21.9667 L17.7575,256.9934 C13.1954,262.4037 0.6198,264.2402 0.6198,254.7079 L0.6198,177.3694 Z" id="path12" fill="#F27D31"></path>
                <path d="M0.6198,5.2942 C0.9007,1.6642 3.0148,0.3531 6.9626,0.3531 L60.5102,0.3531 C65.7611,0.6057 67.7538,5.0351 67.6356,10.5434 L67.6356,76.0591 L17.4715,131.3968 C12.4845,136.2605 0.6198,136.9156 0.6198,127.2789 L0.6198,5.2942 Z" id="path14" fill="#47BBE4"></path>
                <path d="M101.7472,193.1652 L135.8559,157.5306 C139.9625,153.5652 144.7984,153.9745 148.1756,157.0535 L228.7529,245.6753 C232.9142,250.8187 231.5119,262.7948 223.4788,262.7948 L153.4287,262.7948 L104.1677,207.5677 C98.9315,202.4376 97.7792,197.6751 101.7472,193.1652 L101.7472,193.1652 Z" id="path16" fill="#47BBE4"></path>
                <path d="M210.3354,89.0333 C210.3357,84.3888 212.4415,82.0382 216.6533,81.982 C221.3161,81.9633 225.9795,81.9448 230.6427,81.9257 C234.2718,81.8772 237.3367,86.7394 239.8374,97.7203 C241.8869,95.1819 243.9363,92.6436 245.9862,90.1052 C251.3637,83.0729 256.7139,80.2592 262.1192,80.0642 C270.2511,79.9131 277.9138,82.0948 285.3599,87.1154 C287.353,88.4502 289.3461,89.7854 291.3393,91.1206 C295.1571,93.6846 295.9273,96.5354 293.1446,101.105 C290.625,105.2793 288.1054,109.4536 285.5854,113.6279 C283.0359,117.7647 278.9669,118.4414 274.6421,115.32 C269.5277,110.4315 262.5825,108.3176 255.2374,109.9049 C250.8469,111.148 247.039,115.3201 243.7297,121.0738 C243.7298,140.4616 243.7297,159.8491 243.7297,179.2371 C243.6935,184.62 242.3291,188.0381 238.7093,188.1446 C231.4138,188.1443 224.1183,188.1444 216.8227,188.1445 C212.6291,187.9844 210.3732,185.4371 210.2224,180.9243 C210.2598,150.294 210.2976,119.6637 210.3354,89.0333 L210.3354,89.0333 Z" id="path18" fill="#47BBE4"></path>
                <path d="M650.7132,182.0885 C649.5099,185.0822 646.0967,187.9687 643.1115,187.9687 L632.4524,187.9687 C629.4672,187.9687 627.1377,186.6908 625.8661,183.7244 L621.236,172.9261 L587.1692,88.0712 C585.967,85.0762 587.3849,82.6423 590.3709,82.6423 L611.9735,82.6423 C617.1646,82.6423 619.8416,84.1609 621.0047,87.8467 L638.2909,142.6356 L654.9189,88.2405 C656.2231,83.9738 657.7119,82.6423 663.7032,82.6423 L685.3058,82.6423 C688.2918,82.6423 689.7111,85.077 688.5075,88.0712 L650.7132,182.0885 Z" id="path20" fill="#47BBE4"></path>
                <path d="M424.4991,229.1544 C433.1711,229.1544 440.2039,236.5866 440.2039,245.7507 C440.2039,254.9151 433.1711,262.3472 424.4991,262.3472 C415.8271,262.3472 408.7943,254.9151 408.7943,245.7507 C408.7943,236.5866 415.8271,229.1544 424.4991,229.1544 L424.4991,229.1544 Z M241.43,261.6953 C250.6531,261.6953 260.2552,263.1339 269.1228,260.1195 C273.5973,257.6947 274.9687,253.5026 274.9301,247.7678 C274.4964,242.0101 272.0961,240.6529 268.6667,239.0825 C272.5527,237.7729 274.5534,230.6599 272.0195,226.4762 C270.0126,223.8366 267.0416,221.5723 260.6546,220.1414 C255.3203,218.967 247.6713,219.2986 241.43,220.7431 L241.43,261.6953 Z M256.8168,244.1593 L258.2834,244.1593 L259.75,244.1593 C262.5425,244.1593 264.8269,246.304 264.8269,248.926 L264.8269,248.926 C264.8269,251.5478 262.5425,253.6925 259.75,253.6925 L258.2834,253.6925 L256.8168,253.6925 L251.7399,253.6925 L251.7399,248.926 L251.7399,248.926 L251.7399,244.1593 L256.8168,244.1593 Z M255.489,228.7595 L257.0121,228.7595 L258.0674,228.7595 C260.9219,228.7595 263.4249,229.666 263.3132,232.518 C263.1601,236.4255 260.2815,236.1007 258.2202,236.097 L255.8275,236.093 L251.779,236.015 L251.7096,228.7597 L255.489,228.7595 Z M529.4306,261.6953 L539.6316,261.6953 L539.6316,248.5595 C547.7597,248.991 555.3582,247.704 559.3185,242.6363 C562.584,237.1523 562.554,230.6599 560.0201,226.4762 C558.0132,223.8366 555.0422,221.5723 548.6551,220.1414 C543.3209,218.967 535.6719,219.2986 529.4306,220.7431 L529.4306,261.6953 Z M543.4896,228.7595 L545.0126,228.7595 L546.068,228.7595 C548.9225,228.7595 551.2576,231.0947 551.2576,233.9492 L551.2576,233.9492 C551.2576,236.8037 548.9225,239.1389 546.068,239.1389 L545.0126,239.1389 L543.4896,239.1389 L539.7101,239.1389 L539.7101,228.7595 L543.4896,228.7595 Z M678.9975,230.9269 C681.8064,229.4339 686.1916,228.821 692.1509,229.0898 C697.2753,229.3171 703.3075,232.8247 703.3287,238.5773 C703.3554,245.9723 703.3814,253.3679 703.4081,260.7635 C696.1979,263.0522 689.0432,263.3433 681.9442,261.6366 C677.5244,259.7538 675.3964,256.3792 675.5603,251.5138 C676.1391,245.7765 679.69,242.4653 686.2126,241.5806 C689.5747,241.05 692.4581,241.277 694.8631,242.2629 C694.2751,238.7346 691.6233,237.8372 688.474,237.6019 C686.0978,237.4245 683.2662,237.8278 679.9797,238.8129 C679.6523,236.1843 679.3249,233.5557 678.9975,230.9269 L678.9975,230.9269 Z M689.1957,248.5388 L694.2037,248.5388 C694.2601,248.5388 694.3163,248.5408 694.3721,248.5418 L694.3721,254.9405 C694.3163,254.9425 694.2601,254.9435 694.2037,254.9435 L689.1957,254.9435 C687.1185,254.9435 685.4197,253.5026 685.4197,251.7409 L685.4197,251.7406 C685.4197,249.9789 687.1185,248.538 689.1957,248.538 L689.1957,248.5388 Z M569.6789,230.9269 C572.4877,229.4339 576.8729,228.821 582.8322,229.0898 C587.9567,229.3171 593.9888,232.8247 594.01,238.5773 C594.0367,245.9723 594.0628,253.3679 594.0894,260.7635 C586.8792,263.0522 579.7246,263.3433 572.6255,261.6366 C568.2057,259.7538 566.0777,256.3792 566.2416,251.5138 C566.8204,245.7765 570.3714,242.4653 576.8939,241.5806 C580.2561,241.05 583.1395,241.277 585.5444,242.2629 C584.9565,238.7346 582.3047,237.8372 579.1554,237.6019 C576.7791,237.4245 573.9476,237.8278 570.6611,238.8129 C570.3337,236.1843 570.0063,233.5557 569.6789,230.9269 L569.6789,230.9269 Z M579.8771,248.5388 L584.885,248.5388 C584.9414,248.5388 584.9976,248.5408 585.0534,248.5418 L585.0534,254.9405 C584.9976,254.9425 584.9414,254.9435 584.885,254.9435 L579.8771,254.9435 C577.7998,254.9435 576.101,253.5026 576.101,251.7409 L576.101,251.7406 C576.101,249.9789 577.7998,248.538 579.8771,248.538 L579.8771,248.5388 Z M779.0659,231.7611 C787.2629,228.7281 794.2769,228.3737 800.1066,230.6993 C799.578,233.4415 799.049,236.184 798.5201,238.9266 C795.0956,237.84 791.9222,237.562 789.0008,238.0926 L789.0008,261.5989 C785.7146,261.6366 782.4281,261.6746 779.1416,261.7126 C779.1164,251.7289 779.0911,241.745 779.0659,231.7611 L779.0659,231.7611 Z M504.0426,252.1309 L493.2942,252.1309 C494.0023,257.8969 493.3977,263.6157 491.4803,269.2873 C493.9062,270.0164 496.3324,270.7454 498.7586,271.4748 C502.8082,266.4773 504.5699,260.0294 504.0426,252.1309 L504.0426,252.1309 Z M444.4366,229.8489 L454.8199,229.8489 L459.3941,248.4546 L464.5297,229.7928 L471.6577,229.8769 L476.2039,248.9598 L481.171,229.8489 L491.1895,229.8489 L480.5817,261.6443 L472.6682,261.6443 L467.9814,244.3294 L462.8178,261.7004 L455.4653,261.7004 L444.4366,229.8489 Z M599.7763,232.1781 C599.232,230.4991 599.3131,229.8849 600.4779,229.8769 L607.4097,229.8769 C609.2896,229.765 609.8781,230.638 610.2999,232.122 C612.0772,237.8641 613.8548,243.6066 615.6324,249.349 C617.3998,243.3886 619.1672,237.4279 620.9349,231.4672 C621.2609,230.0819 622.174,229.8772 623.6687,229.8409 C625.7416,229.8439 627.8146,229.8459 629.8879,229.8489 C631.1975,229.774 631.6839,230.485 631.3471,231.9817 C628.5046,239.7534 625.662,247.5252 622.8194,255.2969 C619.4303,265.6204 615.1922,271.3591 610.1046,272.5131 C603.9015,273.3749 600.225,272.8763 599.0747,271.0173 C599.7202,268.3981 600.3656,265.7789 601.0111,263.1597 C606.6514,265.545 609.9909,264.3944 611.0295,259.7079 C606.5928,251.4591 602.9409,242.1478 599.7763,232.1781 L599.7763,232.1781 Z M317.3954,232.1781 C316.8511,230.4991 316.9322,229.8849 318.097,229.8769 L325.0288,229.8769 C326.9088,229.765 327.4972,230.638 327.919,232.122 C329.6963,237.8641 331.474,243.6066 333.2516,249.349 C335.019,243.3886 336.7864,237.4279 338.554,231.4672 C338.88,230.0819 339.7931,229.8772 341.2878,229.8409 C343.3608,229.8439 345.4337,229.8459 347.507,229.8489 C348.8166,229.774 349.303,230.485 348.9663,231.9817 C346.1237,239.7534 343.2811,247.5252 340.4385,255.2969 C337.0494,265.6204 332.8113,271.3591 327.7237,272.5131 C321.5207,273.3749 317.8441,272.8763 316.6938,271.0173 C317.3393,268.3981 317.9847,265.7789 318.6302,263.1597 C324.2706,265.545 327.61,264.3944 328.6487,259.7079 C324.2119,251.4591 320.56,242.1478 317.3954,232.1781 L317.3954,232.1781 Z M400.6056,261.9011 L390.9919,261.9011 L390.9919,243.8047 C390.8949,238.1876 387.5554,236.3918 381.9956,237.2099 L381.9604,261.9079 L373.0803,261.9079 L372.885,247.9492 L372.7954,231.2835 C382.4545,227.9449 392.4957,227.732 397.4673,232.9148 C399.0593,235.1902 400.2617,238.4342 400.6056,243.8047 L400.6056,261.9011 Z M283.4349,229.8489 L293.0486,229.8489 L293.0486,247.9453 C293.1456,253.5624 296.4851,255.3581 302.0449,254.5401 L302.0801,229.8421 L310.9602,229.8421 L311.1555,243.8007 L311.2451,260.4665 C301.586,263.8051 291.5449,264.018 286.5732,258.8351 C284.9812,256.5597 283.7788,253.3158 283.4349,247.9453 L283.4349,229.8489 Z M655.881,217.2854 L665.0769,215.2632 L665.0769,225.4373 L665.0769,235.1066 L665.3754,247.8704 C665.5803,253.4703 667.2757,253.8745 669.8286,254.5559 L668.6723,262.754 C664.4107,262.6922 661.139,261.9396 658.109,259.209 C655.5975,256.1334 655.9224,252.4781 655.881,244.0167 L655.881,217.2854 Z M713.4501,222.4972 L722.646,220.6921 L722.646,229.774 L734.0404,229.774 L734.0404,238.4055 L722.646,238.4055 L722.646,246.3593 C722.8509,251.3579 724.45,253.7489 727.0028,254.3572 C728.9137,254.8164 731.8161,254.0006 733.8017,253.2443 L734.8554,260.74 C728.3414,263.842 722.1777,264.2266 716.6371,259.7697 C714.1256,257.0243 713.4915,253.9125 713.4501,246.3593 L713.4501,222.4972 Z M767.7826,257.3291 C764.9069,260.5455 760.8295,262.5536 756.3077,262.5536 C747.5991,262.5536 740.5363,255.105 740.5363,245.9193 C740.5363,237.5299 746.4284,230.5887 754.0853,229.4495 C759.1403,228.6977 764.1531,231.4717 767.3988,235.3674 C769.6067,238.0178 770.668,241.6436 770.583,246.2442 C770.543,248.4107 769.5452,249.2356 767.5539,249.2174 C761.52,249.1613 755.4865,249.1049 749.4532,249.0488 C750.3014,251.6419 751.6447,253.2823 753.4827,253.97 C756.6209,255.003 759.694,254.3348 762.7026,251.9668 C763.7169,251.2156 764.3277,251.5912 765.0568,252.4305 C765.9548,253.4629 766.8526,254.4953 767.7506,255.5279 C768.1925,256.1178 768.2826,256.7695 767.7826,257.3291 L767.7826,257.3291 Z M750.0391,241.8746 L762.0152,241.8746 C758.9561,235.7189 752.6533,235.8904 750.0391,241.8746 L750.0391,241.8746 Z M424.4991,237.7655 C428.2113,237.7655 431.2217,241.3414 431.2217,245.7507 C431.2217,250.1603 428.2113,253.7362 424.4991,253.7362 C420.7868,253.7362 417.7764,250.1603 417.7764,245.7507 C417.7764,241.3414 420.7868,237.7655 424.4991,237.7655 L424.4991,237.7655 Z" id="path22" fill="#F27D31"></path>
            </g>
        </g>
    </g>
</svg>