<svg xmlns="http://www.w3.org/2000/svg" viewBox="0 0 499.51 229.73"><defs><style>.cls-1,.cls-2{fill:#ee4d2d;}.cls-2{fill-rule:evenodd;}</style></defs><g id="Layer_2" data-name="Layer 2"><g id="Layer_1-2" data-name="Layer 1"><path class="cls-1" d="M195.17,41.08H31.37a9,9,0,0,1-9-9,4.11,4.11,0,0,1,4.11-4.11H173.23a4.11,4.11,0,0,0,4.11-4.11V9a9,9,0,0,0-9.83-9L18.76,13.17A20.54,20.54,0,0,0,0,33.63v143a20.54,20.54,0,0,0,20.53,20.54H195.17A20.54,20.54,0,0,0,215.7,176.6v-115A20.53,20.53,0,0,0,195.17,41.08ZM144.56,148.5a28.59,28.59,0,0,1-17.76,23.32,44.84,44.84,0,0,1-19,3.23A61.49,61.49,0,0,1,82,168.41a64.39,64.39,0,0,1-10.36-7.07c-.73-.61-1.11-1.16-.41-2.14s3.72-5.41,4.18-6.12a1.66,1.66,0,0,1,2.62-.27l1.29,1a50,50,0,0,0,28.56,10.87c13.87-.19,23.93-6.37,25.73-15.93,2-10.54-6.43-19.58-22.63-24.62-5.15-1.61-18.09-6.76-20.49-8.15C79.24,109.41,74,100.78,74.73,90.17,75.88,75.46,89.61,64.43,107,64.36A58.88,58.88,0,0,1,130,69.06a60.62,60.62,0,0,1,9,4.85,1.75,1.75,0,0,1,.62,2.57c-.68,1.14-2.73,4.33-3.56,5.66-.6.91-1.35,1-2.4.35a48.35,48.35,0,0,0-26.33-8.13c-11.91.24-20.89,7.26-21.48,16.9-.15,8.7,6.51,15,20.63,19.83C135.6,120.4,146.66,131.35,144.56,148.5Z"/><path class="cls-1" d="M267.91,27.3c-7.22-2.32-10.55-5.37-10.55-9.56.21-4.66,4.56-8.17,10.48-8.39a23.82,23.82,0,0,1,13.25,4,1.4,1.4,0,0,0,2.21-.41c.07-.11.29-.44,1.05-1.52h0c.72-1,1-1.42,1.07-1.55.52-1,.52-1.49-.55-2.24A31.39,31.39,0,0,0,280,5a31.74,31.74,0,0,0-12.37-2.3c-9.5.2-16.94,6.37-17.43,14.48-.31,5.86,2.68,10.58,8.89,14a96.93,96.93,0,0,0,11,4.15c8.28,2.41,12.51,6.81,11.64,11.94-.79,4.67-5.73,7.81-12.73,8a25.61,25.61,0,0,1-14.7-5.31l-.34-.25-.35-.26c-1-.67-1.68-.67-2.35.34l-1.1,1.67-1.05,1.58c-.57.85-.47,1.31.37,2h0a35,35,0,0,0,5.66,3.7A33,33,0,0,0,269,62.19a24.16,24.16,0,0,0,10.23-1.93,15.68,15.68,0,0,0,9.53-12.95C289.78,37.87,283.61,32,267.91,27.3Z"/><path class="cls-1" d="M311.94,25a17.61,17.61,0,0,0-10.47,3.45V4c0-1-.38-1.32-1.33-1.32h-4.41c-1.05,0-1.32.34-1.32,1.32V60.66c0,.93.27,1.32,1.32,1.32h4.41c1,0,1.33-.4,1.33-1.32V42.17c0-6.32,4.72-10.3,10.47-10.3s10.48,4,10.48,10.34V60.66c0,1.07.26,1.32,1.32,1.32h4.4c1.05,0,1.32-.25,1.32-1.32V42.15A17.46,17.46,0,0,0,311.94,25Z"/><path class="cls-1" d="M354,25a18.58,18.58,0,1,0,19,18.58A18.77,18.77,0,0,0,354,25Zm0,30.33a11.76,11.76,0,1,1,12-11.76A11.88,11.88,0,0,1,354,55.31Z"/><path class="cls-1" d="M497.34,46.06h.1a2.2,2.2,0,0,0,2.07-2.23v-.3c0-10.25-8.05-18.58-18-18.58s-18,8.33-18,18.58a19.42,19.42,0,0,0,.14,2.29l0,.24h0a18.17,18.17,0,0,0,4.55,9.82l0,0A19.1,19.1,0,0,0,479,61.78l.32.06h0l.49.08a24.85,24.85,0,0,0,14.37-2.2,17.15,17.15,0,0,0,2.71-1.66c.27-.2.5-.39.69-.56l.23-.21c1-1,1.05-1.49.45-2.42-1.39-2.22-2.17-3.3-2.17-3.3-.54-.68-1-.84-1.73-.22a3.07,3.07,0,0,0-.29.24A16.32,16.32,0,0,1,479.69,55,16.58,16.58,0,0,1,477,54a11.51,11.51,0,0,1-6.26-7.94h26.64Zm-26.2-6.81a10.7,10.7,0,0,1,10.4-7.49,11.52,11.52,0,0,1,10.59,7.49Z"/><path class="cls-1" d="M397.44,24.89a18.6,18.6,0,0,0-11.79,4.19V26.21c0-1-.27-1.32-1.32-1.32h-4.19c-1.05,0-1.33.29-1.33,1.32V79.67c0,1,.28,1.32,1.33,1.32h4.19c1.05,0,1.32-.34,1.32-1.32V57.85a18.6,18.6,0,1,0,11.79-33Zm0,30.32a11.78,11.78,0,0,1-11.79-11.45v-.61a11.79,11.79,0,1,1,11.79,12.06Z"/><path class="cls-1" d="M457.9,43.53c0-10.25-8-18.58-18-18.58s-18,8.33-18,18.58a19.41,19.41,0,0,0,.13,2.29l0,.24h0a18.11,18.11,0,0,0,4.56,9.82l0,0a19,19,0,0,0,10.65,5.88l.32.06h0l.49.08a24.89,24.89,0,0,0,14.38-2.2,18.12,18.12,0,0,0,2.71-1.66c.26-.2.49-.39.68-.56l.24-.21c1-1,1-1.49.44-2.42-1.39-2.22-2.17-3.3-2.17-3.3-.54-.68-1-.84-1.73-.22a3.07,3.07,0,0,0-.29.24A16.32,16.32,0,0,1,438.08,55a16.58,16.58,0,0,1-2.73-1,11.47,11.47,0,0,1-6.25-7.94h26.73a2.2,2.2,0,0,0,2.07-2.23v-.3Zm-28.37-4.28a10.7,10.7,0,0,1,10.4-7.49,11.53,11.53,0,0,1,10.6,7.49Z"/><path class="cls-2" d="M248.71,189.25V80.16a4.09,4.09,0,0,1,4.1-4.09h36.83c20.74.27,37.61,17.16,37.61,37.65s-16.88,37.37-37.62,37.64H263v37.89a4.1,4.1,0,0,1-4.09,4.1h-6.08A4.1,4.1,0,0,1,248.71,189.25ZM263,136.53h26.49a23.11,23.11,0,0,0,16.43-6.77,22.87,22.87,0,0,0,6.81-16.33,23.16,23.16,0,0,0-23.17-23.09H263Z"/><path class="cls-2" d="M421.15,226,449,178.13l-33.39-54.66a2.45,2.45,0,0,1,2.1-3.73h13.52l26.85,43.55,25.94-43.55h12.47a2.46,2.46,0,0,1,2.12,3.7L435.79,229.73H423.27A2.46,2.46,0,0,1,421.15,226Z"/><path class="cls-2" d="M389.79,188.69v-6.3l-2.07,1.73a37.82,37.82,0,0,1-24.16,8.67c-20.46,0-37.11-16.39-37.11-36.53,0-19.83,16.65-36,37.11-36A37.87,37.87,0,0,1,387.72,129l2.07,1.73v-6.3a4.09,4.09,0,0,1,4.09-4.09h8.5v72.49h-8.5A4.1,4.1,0,0,1,389.79,188.69ZM363.46,133.9c-12.86,0-23.33,10-23.33,22.4s10.68,23,23.33,23,23.32-10.51,23.32-23S376.32,133.9,363.46,133.9Z"/></g></g></svg>