<svg xmlns="http://www.w3.org/2000/svg" viewBox="0 0 1176.34 232.8"><defs><style>.cls-1,.cls-2{fill:#fff;}.cls-2{fill-rule:evenodd;}</style></defs><g id="Layer_2" data-name="Layer 2"><g id="Layer_1-2" data-name="Layer 1"><path class="cls-1" d="M203.1,42.75H32.64a9.4,9.4,0,0,1-9.4-9.4,4.27,4.27,0,0,1,4.27-4.27H180.27a4.28,4.28,0,0,0,4.28-4.28V9.4A9.39,9.39,0,0,0,174.32,0L19.52,13.71A21.36,21.36,0,0,0,0,35V183.78a21.37,21.37,0,0,0,21.37,21.37H203.1a21.37,21.37,0,0,0,21.37-21.37V64.12A21.37,21.37,0,0,0,203.1,42.75ZM150.44,154.54A29.78,29.78,0,0,1,132,178.8a46.74,46.74,0,0,1-19.72,3.37,64,64,0,0,1-26.88-6.91,67.27,67.27,0,0,1-10.78-7.36c-.76-.64-1.15-1.2-.42-2.23S78,160,78.51,159.3a1.72,1.72,0,0,1,2.72-.27l1.34,1c8,6.21,18.29,10.87,29.73,11.31,14.43-.19,24.9-6.62,26.77-16.57,2.06-11-6.69-20.38-23.55-25.63-5.36-1.67-18.83-7-21.32-8.47Q76.59,110.42,77.77,93.83C79,78.52,93.25,67.05,111.39,67a61.59,61.59,0,0,1,23.87,4.89,62.67,62.67,0,0,1,9.34,5.06,1.83,1.83,0,0,1,.65,2.67c-.72,1.19-2.85,4.51-3.71,5.89-.63,1-1.4,1-2.5.36a50.36,50.36,0,0,0-27.4-8.46C99.25,77.63,89.91,84.94,89.29,95c-.16,9,6.77,15.62,21.47,20.64C141.12,125.3,152.62,136.68,150.44,154.54Z"/><path class="cls-1" d="M324.5,109.3c-16.61-5.34-24.26-12.34-24.26-22,.48-10.71,10.48-18.79,24.1-19.29a54.76,54.76,0,0,1,30.48,9.12c2.45,1.48,3.65.91,5.08-1,.15-.25.68-1,2.42-3.5h0c1.65-2.35,2.29-3.28,2.46-3.57C366,66.88,366,65.68,363.52,64a74.14,74.14,0,0,0-11.29-5.85,73,73,0,0,0-28.47-5.3c-21.85.47-39,14.65-40.09,33.32-.72,13.48,6.17,24.32,20.45,32.3,4.07,2.13,18.63,7.59,25.29,9.54,19,5.55,28.8,15.67,26.79,27.47-1.82,10.73-13.18,18-29.29,18.46-11.76-.25-23.57-4.56-33.8-12.21l-.79-.59-.8-.59c-2.24-1.54-3.87-1.54-5.41.79l-2.53,3.83c-1.44,2.17-2.07,3.12-2.41,3.65-1.32,1.95-1.09,3,.84,4.62h0a79.44,79.44,0,0,0,13,8.53,76,76,0,0,0,32.05,7.63,55.81,55.81,0,0,0,23.54-4.44c12.53-5.56,20.52-16.42,21.92-29.8C374.81,133.62,360.61,120.1,324.5,109.3Z"/><path class="cls-1" d="M425.79,103.88a40.52,40.52,0,0,0-24.1,8v-56c0-2.2-.87-3-3-3H388.5c-2.41,0-3,.8-3,3V186c0,2.14.63,3,3,3h10.15c2.21,0,3-.93,3-3V143.5c0-14.53,10.86-23.68,24.1-23.68s24.1,9.15,24.1,23.77V186c0,2.46.6,3,3,3h10.12c2.41,0,3-.57,3-3V143.46C466,121.67,447.82,103.88,425.79,103.88Z"/><path class="cls-1" d="M522.59,104c-24.08,0-43.6,19.13-43.6,42.74s19.52,42.74,43.6,42.74,43.61-19.13,43.61-42.74S546.67,104,522.59,104Zm0,69.76c-15.25,0-27.61-12.11-27.61-27s12.36-27,27.61-27,27.61,12.11,27.61,27S537.84,173.73,522.58,173.73Z"/><path class="cls-1" d="M852.27,152.46h.22a5.09,5.09,0,0,0,4.77-5.14c0-.13,0-.25,0-.36v-.32c0-23.59-18.51-42.73-41.34-42.73s-41.34,19.14-41.34,42.73a43.82,43.82,0,0,0,.31,5.26l.06.56h0a41.72,41.72,0,0,0,10.47,22.59l.05,0A44,44,0,0,0,810,188.62l.74.14v0l1.12.18c13.1,1.58,24.13-.54,33.07-5a40.66,40.66,0,0,0,6.23-3.83c.61-.46,1.14-.89,1.57-1.28.27-.23.45-.4.55-.5,2.31-2.38,2.41-3.41,1-5.56-3.2-5.1-5-7.59-5-7.59-1.26-1.57-2.38-1.92-4-.51-.28.25-.54.41-.68.56-9.55,8.48-22.07,10.14-33,7.86a36.56,36.56,0,0,1-6.27-2.29A26.46,26.46,0,0,1,791,152.46h61.28ZM792,136.79c3.17-10.34,12.75-17.23,23.94-17.23a26.5,26.5,0,0,1,24.37,17.23Z"/><path class="cls-1" d="M622.46,103.75a42.72,42.72,0,0,0-27.11,9.64v-6.6c0-2.3-.63-3-3-3h-9.65c-2.42,0-3,.68-3,3v123c0,2.24.63,3,3,3h9.65c2.41,0,3-.79,3-3V179.58a42.78,42.78,0,1,0,27.11-75.83Zm0,69.76a27.08,27.08,0,0,1-27.1-26.35v-1.39a27.11,27.11,0,1,1,27.1,27.74Z"/><path class="cls-1" d="M761.54,146.64c0-23.59-18.51-42.73-41.35-42.73s-41.34,19.14-41.34,42.73a46,46,0,0,0,.31,5.26l.07.56h0a41.65,41.65,0,0,0,10.47,22.59l0,0a44,44,0,0,0,24.5,13.52l.75.14v0l1.12.18c13.1,1.58,24.12-.54,33.07-5a41.15,41.15,0,0,0,6.23-3.83c.61-.46,1.13-.89,1.57-1.28.27-.23.45-.4.55-.5,2.31-2.38,2.41-3.41,1-5.56-3.2-5.1-5-7.59-5-7.59-1.25-1.57-2.38-1.92-4-.51-.28.25-.54.41-.67.56-9.55,8.48-22.08,10.14-33,7.86a37,37,0,0,1-6.28-2.29,26.45,26.45,0,0,1-14.38-18.26h61.5a5.08,5.08,0,0,0,4.76-5.14c0-.13,0-.25,0-.36A2.13,2.13,0,0,0,761.54,146.64Zm-65.27-9.85c3.17-10.34,12.75-17.23,23.94-17.23a26.48,26.48,0,0,1,24.36,17.23Z"/><path class="cls-2" d="M883.37,184.83V57.13a4.78,4.78,0,0,1,4.79-4.79h43.12c24.27.31,44,20.08,44,44.07s-19.75,43.75-44,44.06H900.07v44.35a4.79,4.79,0,0,1-4.79,4.79h-7.12A4.78,4.78,0,0,1,883.37,184.83Zm16.7-61.71h31a27.11,27.11,0,0,0,19.23-7.93,26.81,26.81,0,0,0,8-19.11,27.11,27.11,0,0,0-27.12-27H900.07Z"/><path class="cls-2" d="M1085.23,227.9l32.64-56.08-39.09-64a2.87,2.87,0,0,1,2.45-4.37h15.83l31.44,51,30.36-51h14.6a2.87,2.87,0,0,1,2.48,4.33l-73.57,124.43h-14.65A2.88,2.88,0,0,1,1085.23,227.9Z"/><path class="cls-2" d="M1048.52,184.18V176.8l-2.43,2A44.2,44.2,0,0,1,1017.81,189c-23.95,0-43.44-19.18-43.44-42.76,0-23.21,19.49-42.1,43.44-42.1a44.26,44.26,0,0,1,28.28,10.15l2.43,2V108.9a4.79,4.79,0,0,1,4.79-4.79h9.94V189h-9.94A4.79,4.79,0,0,1,1048.52,184.18ZM1017.69,120c-15.05,0-27.3,11.77-27.3,26.23s12.5,26.88,27.3,26.88,27.3-12.31,27.3-26.88S1032.75,120,1017.69,120Z"/></g></g></svg>