<?xml version="1.0" encoding="utf-8"?>
<!-- Generator: Adobe Illustrator 24.3.0, SVG Export Plug-In . SVG Version: 6.00 Build 0)  -->
<svg version="1.1" id="Layer_1" xmlns="http://www.w3.org/2000/svg" xmlns:xlink="http://www.w3.org/1999/xlink" x="0px" y="0px"
	 viewBox="0 0 1080 568.5" style="enable-background:new 0 0 1080 568.5;" xml:space="preserve">
<style type="text/css">
	.st0{fill:#EB202D;}
	.st1{fill:#223C77;}
	.st2{fill:#00377B;}
</style>
<g>
	<path class="st0" d="M237.1,314c-0.1,7.3,9.2,8.1,14.8,8.1h3c0.6,0,1,0,1.7-0.1c13.3-0.7,13.1-5.7,13.1-8c0-1.2,0-2.5,0-4v-0.6
		V40.9v-0.8v-3.8c0.1-7.3-9.2-8.2-14.8-8.2h-3c-5.6,0-14.9,0.9-14.8,8.2c0,1.6,0,3,0,4.6v268.5c0,0.1,0,0.3,0,0.8V314z"/>
	<path class="st0" d="M63.2,314c-0.1,7.3,9.2,8.1,14.8,8.1h3c0.6,0,1,0,1.7-0.1c13.2-0.7,13.1-5.7,13.1-8c0-1.2,0-2.5,0-4v-0.6V40.9
		v-0.8v-3.8c0.1-7.3-9.2-8.2-14.8-8.2h-3c-5.6,0-14.9,0.9-14.8,8.2c0,1.6-0.1,3-0.1,4.6v268.5c0,0.1,0,0.3,0.1,0.8V314z"/>
	<path class="st0" d="M121.2,314c-0.1,7.3,9.2,8.1,14.8,8.1h3c0.5,0,1,0,1.7-0.1c13.2-0.7,13.1-5.7,13.1-8c0-1.2,0-2.5,0-4v-0.6
		V40.9v-0.8v-3.8c0.1-7.3-9.2-8.2-14.8-8.2h-3c-5.6,0-14.9,0.9-14.8,8.2c0,1.6,0,3,0,4.6v268.5c0,0.1,0,0.3,0,0.8V314z"/>
	<path class="st0" d="M179.2,314c-0.1,7.3,9.2,8.1,14.8,8.1h3c0.5,0,1,0,1.6-0.1c13.3-0.7,13.1-5.7,13.1-8c0-1.2,0-2.5,0-4v-0.6
		V40.9v-0.8v-3.8c0.1-7.3-9.2-8.2-14.8-8.2h-3c-5.6,0-14.9,0.9-14.8,8.2c0,1.6-0.1,3-0.1,4.6v268.5c0,0.1,0,0.3,0.1,0.8V314z"/>
	<path class="st0" d="M27.6,158.8c-7.3-0.1-8.1,9.2-8.1,14.8v3c0,0.6,0,1,0.1,1.6c0.7,13.3,5.7,13.2,8,13.2c1.2,0,2.5,0,4,0h0.6
		h268.5h0.8h3.8c7.3,0.1,8.2-9.2,8.2-14.8v-3c0-5.6-0.9-14.9-8.2-14.8c-1.6,0-3-0.1-4.6-0.1H32.2c-0.1,0-0.3,0-0.8,0.1H27.6z"/>
	<path class="st1" d="M718.5,49.6c-78.2,0-113,38.5-113,124.8c0,84.3,36.3,125.6,111.1,126.1h3.6c74.9-0.4,111.3-41.6,111.3-126.1
		C831.5,88.1,796.6,49.6,718.5,49.6 M718.8,263.6h-0.6c-44.9,0-62.4-25.1-62.4-89.5c0-63.7,16.8-87.4,61.9-87.4h1.5
		c45.1,0,61.9,23.7,61.9,87.4C781.1,238.5,763.6,263.6,718.8,263.6"/>
	<path class="st1" d="M404.6,281.5c15.9,12.2,37.4,17.4,72.1,17.4h1.1h1.1c35,0,56.6-5.2,72.3-17.4c22.8-17.4,26.7-37.8,26.7-77
		l0-140.8c0-2.1,0.1-4.6-2.2-6.9c-3.6-3.6-11.6-5.5-23.8-5.5c-12.1,0-20.1,1.8-23.6,5.5c-2.3,2.3-2.3,4.9-2.2,7l0,25.4v121.7
		c0,24.5,0,29.6-10.9,38.6c-10,8.2-25.2,9.2-37.3,9.2c-12.1,0-27.2-1-37.2-9.2c-10.8-8.9-10.8-13.9-10.8-38l0-147.6
		c0-2.1,0.1-4.6-2.2-7c-3.6-3.6-11.6-5.5-23.7-5.5c-12.2,0-20.2,1.8-23.7,5.5c-2.3,2.3-2.3,4.9-2.2,6.9l0,0.6v140.2
		C377.9,243.7,381.8,264.1,404.6,281.5"/>
	<path class="st1" d="M1026.7,65.9c-12.9-9.6-28.3-13-58.9-13H867.3c-4.6,0-8.3,3.7-8.3,8.3V289c0,4.6,3.7,8.3,8.3,8.3h105.4
		c28.6,0,48.6-0.9,65.3-13.5c18.6-14.4,22.6-38.1,22.6-55.5c0-22.9-7.7-41-21.6-51c-6.1-4.5-13.2-7.2-20-9.6l-4.6-1.6l4.4-2.1
		c20.5-9.8,28-23.4,27.7-50.3C1046.3,101.3,1043.5,78.3,1026.7,65.9 M910.2,87.1h56.1c29.1,0,31.4,14.7,31.4,34
		c0,23-10.6,32.8-35.3,32.8h-52.2V87.1z M965.2,262.3h-55v-73.7h59c32.7,0,39.3,14.3,39.3,37.2
		C1008.5,256.8,997.1,262.3,965.2,262.3"/>
	<g>
		<path class="st2" d="M245.5,534.9V389.4h75.9v13.2h-60.6v52.4h49.7v13.2h-49.7v53.4h68.6v13.2H245.5z"/>
		<path class="st2" d="M354.3,534.9v-3.4l50.2-85.9c4.3-7.3,8.6-14.8,13.1-22.4c4.5-7.6,8.7-14.5,12.7-20.8l-0.2-0.2h-69.8v-12.8
			h91.7v3.4l-50.6,86.3c-4.1,7-8.4,14.3-12.9,21.8c-4.5,7.5-8.7,14.5-12.7,20.9l0.2,0.2h78.2v12.8H354.3z"/>
		<path class="st2" d="M637,428.9c0,6.2-1.2,11.8-3.5,16.6c-2.4,4.9-5.5,9-9.3,12.4c-3.9,3.4-8.3,6-13.3,7.8
			c-5,1.7-10.2,2.6-15.5,2.6h-26.2v66.6h-15.3V389.4h40.6c5.5,0,10.8,0.9,16,2.6c5.2,1.8,9.7,4.3,13.7,7.8c4,3.4,7.1,7.6,9.5,12.4
			C635.8,417.1,637,422.6,637,428.9z M621.5,428.9c0-4.1-0.8-7.8-2.4-11.1c-1.6-3.3-3.7-6-6.4-8.2c-2.7-2.2-5.8-3.9-9.3-5.1
			c-3.6-1.2-7.4-1.8-11.5-1.8h-22.8v52.4h23.7c3.8,0,7.4-0.6,10.9-1.7c3.5-1.1,6.5-2.9,9.1-5.1c2.6-2.3,4.7-5.1,6.3-8.3
			S621.5,433,621.5,428.9z"/>
		<path class="st2" d="M753.1,534.9l-16.6-40.8h-61.6l-16.4,40.8h-15l60.2-148.4h4.8l60.2,148.4H753.1z M713.9,436.8
			c-1.4-3.3-2.7-6.9-4-10.7c-1.3-3.8-2.5-7.7-3.8-11.6h-0.5c-1.2,3.9-2.5,7.8-3.9,11.6c-1.4,3.8-2.7,7.3-4.1,10.7l-17.6,44.5h51.1
			L713.9,436.8z"/>
		<path class="st2" d="M837.6,467.6v67.3h-15v-67.3l-55.4-78.2h16.9l31.5,44.5c2.3,3.3,4.8,7,7.5,10.9c2.7,4,5.2,7.7,7.5,11.2h0.5
			c2.3-3.5,4.7-7.2,7.3-11.1c2.6-3.9,5.2-7.6,7.8-11.1l31.7-44.5h15.7L837.6,467.6z"/>
	</g>
</g>
</svg>
