<?xml version="1.0" encoding="utf-8"?>
<!-- Generator: Adobe Illustrator 24.3.0, SVG Export Plug-In . SVG Version: 6.00 Build 0)  -->
<svg version="1.1" id="Layer_1" xmlns="http://www.w3.org/2000/svg" xmlns:xlink="http://www.w3.org/1999/xlink" x="0px" y="0px"
	 viewBox="0 0 1080 194.4" style="enable-background:new 0 0 1080 194.4;" xml:space="preserve">
<style type="text/css">
	.st0{fill:#EB202D;}
	.st1{fill:#223C77;}
	.st2{fill:#00377B;}
	.st3{fill:none;stroke:#223C77;stroke-width:4.4595;stroke-miterlimit:10;}
</style>
<path class="st0" d="M161.8,176.2c0,4,5,4.4,8.1,4.4h1.6c0.3,0,0.5,0,0.9,0c7.2-0.4,7.2-3.1,7.2-4.4c0-0.7,0-1.4,0-2.2v-0.3V27.1
	v-0.4v-2.1c0.1-4-5-4.5-8.1-4.5h-1.6c-3.1,0-8.1,0.5-8.1,4.5c0,0.8,0,1.7,0,2.5v146.6c0,0.1,0,0.2,0,0.4V176.2z"/>
<path class="st0" d="M66.9,176.2c-0.1,4,5,4.4,8.1,4.4h1.6c0.3,0,0.6,0,0.9,0c7.2-0.4,7.2-3.1,7.2-4.4c0-0.7,0-1.4,0-2.2v-0.3V27.1
	v-0.4v-2.1c0.1-4-5-4.5-8.1-4.5h-1.6c-3.1,0-8.1,0.5-8.1,4.5c0,0.8,0,1.7,0,2.5v146.6c0,0.1,0,0.2,0,0.4V176.2z"/>
<path class="st0" d="M98.5,176.2c0,4,5,4.4,8.1,4.4h1.6c0.3,0,0.5,0,0.9,0c7.2-0.4,7.2-3.1,7.2-4.4c0-0.7,0-1.4,0-2.2v-0.3V27.1
	v-0.4v-2.1c0.1-4-5-4.5-8.1-4.5h-1.6c-3.1,0-8.1,0.5-8.1,4.5c0,0.8,0,1.7,0,2.5v146.6c0,0.1,0,0.2,0,0.4V176.2z"/>
<path class="st0" d="M130.2,176.2c0,4,5,4.4,8.1,4.4h1.6c0.3,0,0.5,0,0.9,0c7.2-0.4,7.2-3.1,7.2-4.4c0-0.7,0-1.4,0-2.2v-0.3V27.1
	v-0.4v-2.1c0.1-4-5-4.5-8.1-4.5h-1.6c-3.1,0-8.1,0.5-8.1,4.5c0,0.8,0,1.7,0,2.5v146.6c0,0.1,0,0.2,0,0.4V176.2z"/>
<path class="st0" d="M47.4,91.5c-4,0-4.4,5-4.4,8.1v1.7c0,0.3,0,0.5,0,0.9c0.4,7.2,3.1,7.2,4.4,7.2c0.7,0,1.4,0,2.2,0h0.3h146.6h0.4
	h2.1c4,0.1,4.5-5,4.5-8.1v-1.7c0-3.1-0.5-8.1-4.5-8.1c-0.8,0-1.7,0-2.5,0H49.9c-0.1,0-0.2,0-0.4,0H47.4z"/>
<path class="st1" d="M424.7,31.9c-42.7,0-61.7,21-61.7,68.2c0,46,19.8,68.6,60.6,68.9h2c40.9-0.2,60.8-22.7,60.8-68.9
	C486.4,52.9,467.4,31.9,424.7,31.9 M424.8,148.7h-0.3c-24.5,0-34.1-13.7-34.1-48.9c0-34.8,9.2-47.7,33.8-47.7h0.8
	c24.6,0,33.8,12.9,33.8,47.7C458.9,135,449.3,148.7,424.8,148.7"/>
<path class="st1" d="M253.3,158.5c8.7,6.7,20.4,9.5,39.4,9.5h0.6h0.6c19.1,0,30.9-2.8,39.5-9.5c12.5-9.5,14.6-20.6,14.6-42.1l0-76.9
	c0-1.1,0-2.5-1.2-3.8c-2-2-6.3-3-13-3c-6.6,0-11,1-12.9,3c-1.3,1.3-1.2,2.7-1.2,3.8l0,13.9v66.5c0,13.4,0,16.2-5.9,21.1
	c-5.5,4.5-13.8,5-20.3,5c-6.6,0-14.9-0.6-20.3-5c-5.9-4.9-5.9-7.6-5.9-20.8l0-80.6c0-1.1,0-2.5-1.2-3.8c-2-2-6.3-3-12.9-3
	c-6.6,0-11,1-13,3c-1.3,1.3-1.2,2.7-1.2,3.8l0,0.3v76.5C238.7,137.9,240.8,149,253.3,158.5"/>
<path class="st1" d="M593,40.8c-7.1-5.2-15.5-7.1-32.1-7.1h-54.9c-2.5,0-4.5,2-4.5,4.5v124.4c0,2.5,2,4.5,4.5,4.5h57.6
	c15.6,0,26.5-0.5,35.6-7.3c10.2-7.9,12.3-20.8,12.3-30.3c0-12.5-4.2-22.4-11.8-27.8c-3.3-2.5-7.2-3.9-10.9-5.2l-2.5-0.9l2.4-1.1
	c11.2-5.4,15.3-12.8,15.1-27.5C603.7,60.1,602.1,47.6,593,40.8 M529.4,52.3H560c15.9,0,17.1,8,17.1,18.6c0,12.6-5.8,17.9-19.3,17.9
	h-28.5V52.3z M559.4,148h-30.1v-40.3h32.2c17.9,0,21.5,7.8,21.5,20.3C583,145,576.8,148,559.4,148"/>
<g>
	<path class="st2" d="M683.2,140.1V60.6h41.5v7.2h-33.1v28.6h27.1v7.2h-27.1v29.1H729v7.2H683.2z"/>
	<path class="st2" d="M742.6,140.1v-1.9L770,91.3c2.3-4,4.7-8.1,7.2-12.2c2.4-4.2,4.8-7.9,6.9-11.3l-0.1-0.1h-38.1v-7h50v1.9
		l-27.6,47.1c-2.2,3.8-4.6,7.8-7,11.9c-2.4,4.1-4.8,7.9-6.9,11.4l0.1,0.1h42.7v7H742.6z"/>
	<path class="st2" d="M897,82.2c0,3.4-0.6,6.4-1.9,9.1c-1.3,2.7-3,4.9-5.1,6.8c-2.1,1.9-4.5,3.3-7.3,4.2c-2.7,1-5.6,1.4-8.5,1.4
		h-14.3v36.4h-8.3V60.6h22.2c3,0,5.9,0.5,8.7,1.4c2.8,1,5.3,2.4,7.5,4.2c2.2,1.9,3.9,4.1,5.2,6.8C896.3,75.7,897,78.8,897,82.2z
		 M888.5,82.2c0-2.2-0.4-4.3-1.3-6c-0.9-1.8-2-3.3-3.5-4.5c-1.5-1.2-3.2-2.1-5.1-2.8c-2-0.7-4-1-6.3-1h-12.5v28.6h12.9
		c2.1,0,4.1-0.3,6-0.9c1.9-0.6,3.6-1.6,5-2.8c1.4-1.2,2.6-2.8,3.4-4.5S888.5,84.4,888.5,82.2z"/>
	<path class="st2" d="M960.4,140.1l-9.1-22.3h-33.6l-9,22.3h-8.2L933.3,59h2.6l32.9,81.1H960.4z M938.9,86.5
		c-0.7-1.8-1.5-3.8-2.2-5.8c-0.7-2.1-1.4-4.2-2.1-6.3h-0.3c-0.7,2.2-1.4,4.3-2.1,6.3c-0.7,2.1-1.5,4-2.2,5.8l-9.6,24.3h27.9
		L938.9,86.5z"/>
	<path class="st2" d="M1006.5,103.3v36.7h-8.2v-36.7l-30.3-42.7h9.2l17.2,24.3c1.2,1.8,2.6,3.8,4.1,6c1.5,2.2,2.9,4.2,4.1,6.1h0.2
		c1.2-1.9,2.6-3.9,4-6c1.4-2.1,2.8-4.1,4.2-6l17.3-24.3h8.6L1006.5,103.3z"/>
</g>
<line class="st3" x1="647.1" y1="19.1" x2="647.1" y2="181.7"/>
</svg>
