<svg id="Layer_1" data-name="Layer 1" xmlns="http://www.w3.org/2000/svg" viewBox="0 0 55.42 59.793"><defs><style>.cls-1{fill:#9ddcf9;}.cls-1,.cls-2,.cls-3{fill-rule:evenodd;}.cls-2{fill:#00acdb;}.cls-3{fill:#0256a7;}</style></defs><path class="cls-1" d="M3.959,48.243A3.958,3.958,0,0,1,0,44.285v-28.8a3.959,3.959,0,1,1,7.917,0v28.8A3.958,3.958,0,0,1,3.959,48.243Z"/><path class="cls-2" d="M51.461,48.243A3.958,3.958,0,0,1,47.5,44.285V15.508a3.959,3.959,0,1,1,7.917,0V44.285A3.959,3.959,0,0,1,51.461,48.243Z"/><path class="cls-3" d="M27.71,59.793a3.96,3.96,0,0,1-3.959-3.959V3.959a3.959,3.959,0,1,1,7.917,0V55.834A3.959,3.959,0,0,1,27.71,59.793Z"/></svg>